<svg id="c19a792e-ec97-4396-80f1-ca37667d8f79" data-name="Layer 1" xmlns="http://www.w3.org/2000/svg" viewBox="0 0 278.04 2">
  <title>icon-geometry23</title>
  <path d="M854.88,296.74h7.94v-2h-7.94v2Zm15.89,0h7.94v-2h-7.94v2Zm15.89,0h7.94v-2h-7.94v2Zm15.89,0h7.94v-2h-7.94v2Zm15.89,0h7.94v-2h-7.94v2Zm15.89,0h7.94v-2h-7.94v2Zm15.89,0h7.94v-2h-7.94v2Zm15.89,0H974v-2h-7.94v2Zm15.89,0h7.94v-2H982v2Zm15.89,0h7.94v-2h-7.94v2Zm15.89,0h7.94v-2h-7.94v2Zm15.89,0h7.94v-2h-7.94v2Zm15.88,0h7.95v-2h-7.95v2Zm15.89,0h7.95v-2h-7.95v2Zm15.89,0h7.94v-2h-7.94v2Zm15.89,0h7.94v-2h-7.94v2Zm15.89,0H1117v-2h-7.94v2Zm15.88,0h8v-2h-8v2Z" transform="translate(-854.88 -294.74)" style="fill: #9e8c66"/>
</svg>
