<svg xmlns="http://www.w3.org/2000/svg" xmlns:xlink="http://www.w3.org/1999/xlink" width="177" height="233" viewBox="0 0 177 233">
  <defs>
    <clipPath id="clip-iPad_3">
      <rect width="177" height="233"/>
    </clipPath>
  </defs>
  <g id="iPad_3" data-name="iPad – 3" clip-path="url(#clip-iPad_3)">
    <g id="Group_2" data-name="Group 2" transform="translate(-14.945 -10.382)">
      <path id="Path_20" data-name="Path 20" d="M77.327-217.186c-20.876,1.548-35.93,6.965-45.866,16.735C19.919-189.23,15.4-177.138,16.205-159.726c.7,16.638,2.409,20.507,27.4,62.78,24.79,41.789,27.8,45.658,40.346,51.655,7.226,3.386,8.016,3.851,20.173,3.869,11.23.054,13.549.1,18.969-1.644a47.1,47.1,0,0,0,27.1-22.249l3.312-5.8-4.316,1.451c-11.241,3.869-25.392,5.127-36.532,3.192C81.743-71.7,59.161-89.595,49.928-116.2c-2.007-5.707-2.409-8.609-2.308-18.379,0-11.221,1.405-17.509,5.821-27.666.6-1.257-.1-1.451-4.617-1.064-4.416.29-5.921,0-8.832-1.935-10.538-6.868-10.94-19.927-.8-27.182,3.814-2.805,11.441-3.192,15.857-.871,3.914,2.031,7.929,7.061,8.732,11.027l.5,2.709L69.6-184.2c10.036-8.8,25.091-14.607,38.138-14.7,17.764,0,38.038,11.8,45.565,26.5,9.836,19.25,4.316,44.5-11.943,54.267-8.631,5.224-20.775,6.771-30.711,3.869C104.425-116,97.5-121.614,95.091-126.741c-2.208-4.74-2.509-12.962-.5-15.574,1.3-1.838,1.606-1.741,5.921,2.128a51.523,51.523,0,0,0,7.828,5.707c8.23,4.159,21.277.58,25.693-6.965,4.717-7.932,1.907-20.507-6.223-27.375-15.155-12.769-38.138-9-50.382,8.416C60.867-136.9,69.8-107.1,97.5-93.948c35.93,17.025,76.778-2.515,90.929-43.53,7.025-20.507,6.122-41.885-2.509-56.2-5.52-9.286-17.764-17.218-32.116-20.7C139.552-217.96,104.324-219.217,77.327-217.186Z" transform="translate(-1.17 284.786)" fill="#d91b5c"/>
      <path id="Path_23" data-name="Path 23" d="M100.553,63.862S121.4,22.5,71.379,10.382c0,0-6.36,25.307,0,37.528S100.553,63.862,100.553,63.862Z" transform="translate(1.614 0)" fill="#8cc63f"/>
      <path id="Path_24" data-name="Path 24" d="M109.484,65.3S140.92,77.29,146.07,36.767c.091-.163-19.389-4.859-30.935,11C107.334,58.487,109.484,65.3,109.484,65.3Z" transform="translate(0.233 -3)" fill="#bdd73c"/>
    </g>
  </g>
</svg>
