<svg xmlns="http://www.w3.org/2000/svg" xmlns:xlink="http://www.w3.org/1999/xlink" width="926" height="279" viewBox="0 0 926 279">
  <defs>
    <clipPath id="clip-iPad_2">
      <rect width="926" height="279"/>
    </clipPath>
  </defs>
  <g id="iPad_2" data-name="iPad – 2" clip-path="url(#clip-iPad_2)">
    <rect width="926" height="279"/>
    <g id="brand-name">
      <path id="recruitment" d="M37,0h-7.6L25.8-10.285a8.264,8.264,0,0,0-1.046-1.967A7.191,7.191,0,0,0,23.246-13.8a7.126,7.126,0,0,0-1.905-1.021,6.54,6.54,0,0,0-2.216-.374h-7.57V0H4.507V-37.8H21.441q1.519,0,2.889.062a16.593,16.593,0,0,1,2.627.324,12.052,12.052,0,0,1,2.416.772,8.908,8.908,0,0,1,2.2,1.407,9.969,9.969,0,0,1,1.619,1.781,10.876,10.876,0,0,1,1.158,2.079,11.868,11.868,0,0,1,.7,2.279,11.974,11.974,0,0,1,.237,2.353,10.382,10.382,0,0,1-1.668,5.939,10.684,10.684,0,0,1-4.607,3.8,12.874,12.874,0,0,1,3.935,5.827ZM11.555-21.69h9.388a17.437,17.437,0,0,0,3.25-.261,5.757,5.757,0,0,0,2.216-.859,3.482,3.482,0,0,0,1.258-1.569,6.238,6.238,0,0,0,.4-2.366,4.331,4.331,0,0,0-1.569-3.7,8.023,8.023,0,0,0-4.831-1.183H11.555ZM77.664,0H48.778V-37.8H76.842v6.5H55.825v8.542H75.5v6.45H55.825V-6.5H77.664Zm37.173-24.778a8.005,8.005,0,0,0-.809-3.051,7.4,7.4,0,0,0-1.805-2.316,7.886,7.886,0,0,0-2.627-1.469,9.983,9.983,0,0,0-3.225-.51,10.726,10.726,0,0,0-4.383.859,8.936,8.936,0,0,0-3.324,2.54,11.705,11.705,0,0,0-2.117,4.146,19.82,19.82,0,0,0-.735,5.653,19.511,19.511,0,0,0,.747,5.653,12.111,12.111,0,0,0,2.1,4.146,8.986,8.986,0,0,0,3.287,2.565,10.256,10.256,0,0,0,4.321.884,10.307,10.307,0,0,0,3.324-.51,7.452,7.452,0,0,0,2.627-1.519,7.5,7.5,0,0,0,1.793-2.465,10.219,10.219,0,0,0,.847-3.374h7.2a17.011,17.011,0,0,1-1.581,6.014A13.815,13.815,0,0,1,117.116-3.1,14.476,14.476,0,0,1,112.3-.349,18.113,18.113,0,0,1,106.346.6,18.756,18.756,0,0,1,98.987-.784a15.626,15.626,0,0,1-5.578-3.922,17.534,17.534,0,0,1-3.549-6.151,24.641,24.641,0,0,1-1.245-8.068,24.418,24.418,0,0,1,1.258-8.068,17.714,17.714,0,0,1,3.573-6.163,15.674,15.674,0,0,1,5.591-3.935,18.622,18.622,0,0,1,7.309-1.382,16.826,16.826,0,0,1,5.777.984,15.5,15.5,0,0,1,4.819,2.777,14.831,14.831,0,0,1,3.461,4.321,14.744,14.744,0,0,1,1.656,5.615ZM167.076,0h-7.6L155.87-10.285a8.264,8.264,0,0,0-1.046-1.967,7.191,7.191,0,0,0-1.507-1.544,7.126,7.126,0,0,0-1.905-1.021,6.54,6.54,0,0,0-2.216-.374h-7.57V0h-7.047V-37.8h16.934q1.519,0,2.889.062a16.593,16.593,0,0,1,2.627.324,12.052,12.052,0,0,1,2.416.772,8.908,8.908,0,0,1,2.2,1.407,9.969,9.969,0,0,1,1.619,1.781,10.876,10.876,0,0,1,1.158,2.079,11.868,11.868,0,0,1,.7,2.279,11.974,11.974,0,0,1,.237,2.353,10.382,10.382,0,0,1-1.668,5.939,10.684,10.684,0,0,1-4.607,3.8,12.874,12.874,0,0,1,3.935,5.827Zm-25.45-21.69h9.388a17.437,17.437,0,0,0,3.25-.261,5.757,5.757,0,0,0,2.216-.859,3.482,3.482,0,0,0,1.258-1.569,6.238,6.238,0,0,0,.4-2.366,4.331,4.331,0,0,0-1.569-3.7,8.023,8.023,0,0,0-4.831-1.183h-10.11ZM194.014.6a22.612,22.612,0,0,1-6.076-.71,13.186,13.186,0,0,1-4.2-1.93,9.52,9.52,0,0,1-2.652-2.864,13.959,13.959,0,0,1-1.469-3.5A19.466,19.466,0,0,1,179-12.24q-.125-1.98-.125-3.9V-37.8h7.047v21.59a21.107,21.107,0,0,0,.535,5.242,7.436,7.436,0,0,0,1.569,3.163,5.228,5.228,0,0,0,2.54,1.544,13.144,13.144,0,0,0,3.449.411,13.021,13.021,0,0,0,3.486-.423,5.161,5.161,0,0,0,2.528-1.556,7.5,7.5,0,0,0,1.531-3.15,21.432,21.432,0,0,0,.523-5.229V-37.8h7.1v21.665a32.939,32.939,0,0,1-.685,7.047,12.672,12.672,0,0,1-2.4,5.267,10.751,10.751,0,0,1-4.644,3.287A20.8,20.8,0,0,1,194.014.6Zm36.5-.6h-7.022V-37.8h7.022Zm41.108-31.3H259.869V0H252.8V-31.3h-11.7v-6.5h30.53ZM318.408,0H311.56V-24.205L303.417,0H297.49L289.4-24.205V0h-6.823V-37.8h9.164l8.741,26.944L309.269-37.8h9.139Zm43.174,0H332.7V-37.8h28.065v6.5H339.743v8.542h19.673v6.45H339.743V-6.5h21.839Zm42.876,0h-6.649L380.95-25.276V0h-6.8V-37.8h6.674L397.61-12.476V-37.8h6.848Zm41.581-31.3H434.285V0h-7.072V-31.3h-11.7v-6.5h30.53Z" transform="translate(333 255)" fill="#bdd73c"/>
      <path id="sorbet" d="M164.5,116.991a60.931,60.931,0,0,1-11.523-1.064,52.235,52.235,0,0,1-19.835-8.311,50.178,50.178,0,0,1-7.938-6.835,51.072,51.072,0,0,1-6.434-8.47,58.244,58.244,0,0,1-4.81-10.02,68.609,68.609,0,0,1-4-23.869A75.78,75.78,0,0,1,110.986,45.8a61.526,61.526,0,0,1,3.054-11.4,58.572,58.572,0,0,1,4.875-10.011A51.172,51.172,0,0,1,125.4,15.95a49.639,49.639,0,0,1,7.965-6.78,51.583,51.583,0,0,1,9.329-5.024,53.483,53.483,0,0,1,10.459-3.11,62.75,62.75,0,0,1,22.767.009,53.029,53.029,0,0,1,10.477,3.138,51.788,51.788,0,0,1,9.32,5.052,49.558,49.558,0,0,1,7.938,6.789,51.365,51.365,0,0,1,6.453,8.442,59.006,59.006,0,0,1,4.865,10.011,61.592,61.592,0,0,1,3.054,11.384,77.967,77.967,0,0,1,.019,25,62.2,62.2,0,0,1-3,11.318,58.5,58.5,0,0,1-4.81,10,51.75,51.75,0,0,1-6.434,8.489,50.4,50.4,0,0,1-7.937,6.873,52.6,52.6,0,0,1-9.319,5.155,51.887,51.887,0,0,1-10.515,3.222A60.414,60.414,0,0,1,164.5,116.991Zm.224-98.09a32.6,32.6,0,0,0-13.261,2.689,30.046,30.046,0,0,0-10.534,7.77,36.163,36.163,0,0,0-6.91,12.439,52.425,52.425,0,0,0-2.465,16.622,52.676,52.676,0,0,0,2.465,16.7,37.3,37.3,0,0,0,6.835,12.477,29.722,29.722,0,0,0,10.384,7.843,31.7,31.7,0,0,0,13.186,2.727,32.4,32.4,0,0,0,13.335-2.727,29.528,29.528,0,0,0,10.459-7.843,36.821,36.821,0,0,0,6.8-12.477,53.435,53.435,0,0,0,2.428-16.7,52.919,52.919,0,0,0-2.466-16.772,36.44,36.44,0,0,0-6.835-12.4,29.288,29.288,0,0,0-10.384-7.695A32.087,32.087,0,0,0,164.729,18.9Zm-115.5,98.09a64.692,64.692,0,0,1-21.254-3.175,43.01,43.01,0,0,1-15.2-8.852A37.375,37.375,0,0,1,3.474,91.4,50.419,50.419,0,0,1,0,74.11H20.544a26.544,26.544,0,0,0,2.951,10.5,23.551,23.551,0,0,0,6.163,7.359,25.05,25.05,0,0,0,8.554,4.3,37.3,37.3,0,0,0,10.273,1.382A39.642,39.642,0,0,0,57.9,96.6a24.74,24.74,0,0,0,7.284-2.951,14,14,0,0,0,4.669-4.669,11.947,11.947,0,0,0,1.643-6.2A10.758,10.758,0,0,0,69.889,76.8,13.977,13.977,0,0,0,64.7,72.392a45.644,45.644,0,0,0-9.413-3.549c-3.865-1.065-8.691-2.184-14.344-3.325a105.162,105.162,0,0,1-16.734-5.043,41.651,41.651,0,0,1-11.542-6.8,24.7,24.7,0,0,1-6.686-9.04A30.1,30.1,0,0,1,3.81,32.871,29.34,29.34,0,0,1,6.8,19.686,30.688,30.688,0,0,1,15.278,9.3,41.363,41.363,0,0,1,28.389,2.465,55.156,55.156,0,0,1,45.347,0,56.579,56.579,0,0,1,63.09,2.652a40.99,40.99,0,0,1,13.858,7.62A35.248,35.248,0,0,1,86.1,22.45a41.2,41.2,0,0,1,3.548,16.323H69.328a26.65,26.65,0,0,0-2.3-8.465,17.7,17.7,0,0,0-4.664-6.047,19.616,19.616,0,0,0-7.027-3.628,33.415,33.415,0,0,0-9.39-1.209,42.758,42.758,0,0,0-9.1.869A20.678,20.678,0,0,0,30.182,22.9a12.058,12.058,0,0,0-4.09,4.118,10.736,10.736,0,0,0-1.363,5.407,7.705,7.705,0,0,0,1.2,4.3,11.215,11.215,0,0,0,3.81,3.362,32.5,32.5,0,0,0,6.724,2.8c2.723.842,6.066,1.672,9.936,2.466,3.365.692,6.871,1.471,10.421,2.316a105.816,105.816,0,0,1,10.46,3.063,58.66,58.66,0,0,1,9.637,4.37,33.967,33.967,0,0,1,7.956,6.238,27.289,27.289,0,0,1,5.416,8.629,31.418,31.418,0,0,1,1.98,11.617,32.062,32.062,0,0,1-3.213,14.343,33.541,33.541,0,0,1-8.927,11.169,42.445,42.445,0,0,1-13.634,7.284A55,55,0,0,1,49.232,116.991ZM262.595,115.2H241.453V1.793h50.8c3.03,0,5.945.063,8.665.187a49.981,49.981,0,0,1,7.882.971,36.371,36.371,0,0,1,7.247,2.316,26.841,26.841,0,0,1,6.611,4.221,30.046,30.046,0,0,1,4.855,5.342,32.762,32.762,0,0,1,3.474,6.238,35.717,35.717,0,0,1,2.092,6.836,36.079,36.079,0,0,1,.71,7.06,35.716,35.716,0,0,1-1.251,9.646,28.282,28.282,0,0,1-3.754,8.171,30.781,30.781,0,0,1-5.957,6.565,34.668,34.668,0,0,1-7.863,4.828,30.028,30.028,0,0,1,6.574,7.134,50.994,50.994,0,0,1,5.229,10.347L338.945,115.2H316.16L305.328,84.344a24.907,24.907,0,0,0-3.137-5.9,21.287,21.287,0,0,0-10.235-7.695,19.719,19.719,0,0,0-6.649-1.12H262.595V115.2Zm0-94.879V50.128h28.165a52.584,52.584,0,0,0,9.75-.784,17.36,17.36,0,0,0,6.649-2.578,10.5,10.5,0,0,0,3.773-4.707,18.8,18.8,0,0,0,1.2-7.1,16.755,16.755,0,0,0-1.177-6.546,10.992,10.992,0,0,0-3.53-4.548,16.3,16.3,0,0,0-5.976-2.662,36.283,36.283,0,0,0-8.516-.887ZM624.924,115.2H603.707V21.291H568.595V1.793h91.591v19.5H624.924Zm-70,0h-86.66V46.916h80.16V66.265H489.406V95.7h65.518v19.5Zm-152.253,0H359.117V1.793h41.537a59.9,59.9,0,0,1,16.51,2.129,38.809,38.809,0,0,1,12.662,6.088,27.238,27.238,0,0,1,8.106,9.637,28.3,28.3,0,0,1,2.839,12.775,28.185,28.185,0,0,1-2.652,12.551,25.715,25.715,0,0,1-8.255,9.413A27.615,27.615,0,0,1,437,59.168a28.2,28.2,0,0,1,5.043,6.276,27.766,27.766,0,0,1,2.989,7.321A32.992,32.992,0,0,1,446,80.758a37.9,37.9,0,0,1-2.727,14.858,27.585,27.585,0,0,1-8.181,10.8A36.743,36.743,0,0,1,421.534,113,72.9,72.9,0,0,1,402.671,115.2ZM380.259,65.742V95.7H402.6a43.135,43.135,0,0,0,9.511-.934,19.738,19.738,0,0,0,6.794-2.8,11.984,11.984,0,0,0,4.076-4.669,14.886,14.886,0,0,0,1.359-6.537,18.063,18.063,0,0,0-1.121-6.686,10.19,10.19,0,0,0-3.884-4.669,20.015,20.015,0,0,0-7.321-2.764,60.513,60.513,0,0,0-11.355-.9Zm0-44.451V46.468H400.5c6.543,0,11.445-.993,14.567-2.951a9.329,9.329,0,0,0,3.53-3.95,13.817,13.817,0,0,0,1.177-5.948,12.811,12.811,0,0,0-1.084-5.454,9.13,9.13,0,0,0-3.511-3.847,18.478,18.478,0,0,0-6.387-2.279,53.229,53.229,0,0,0-9.637-.747Z" transform="translate(227.919 77.802)" fill="#bdd73c" stroke="rgba(0,0,0,0)" stroke-width="1"/>
    </g>
    <path id="sorbet--accent" d="M696.2,79.632V99.067l84.173.018L780.327,79.6Z" fill="#d91b5c"/>
    <g id="Group_1" data-name="Group 1">
      <path id="Path_20" data-name="Path 20" d="M77.314-217.15c-20.871,1.605-35.923,7.225-45.857,17.359-11.539,11.64-16.055,24.183-15.252,42.244.7,17.259,2.408,21.273,27.394,65.123,24.785,43.348,27.8,47.362,40.338,53.583,7.225,3.512,8.014,3.994,20.169,4.014,11.227.056,13.546.1,18.965-1.706,11.84-4.014,20.871-11.74,27.093-23.079l3.311-6.021-4.315,1.505c-11.238,4.014-25.387,5.318-36.525,3.311C81.729-66.234,59.152-84.8,49.921-112.391c-2.007-5.92-2.408-8.931-2.308-19.065,0-11.64,1.4-18.162,5.82-28.7.6-1.3-.1-1.505-4.616-1.1-4.415.3-5.92,0-8.83-2.007-10.536-7.124-10.937-20.671-.8-28.2,3.813-2.91,11.439-3.311,15.854-.9,3.913,2.107,7.927,7.325,8.73,11.439l.5,2.81,5.318-4.816c10.034-9.131,25.086-15.152,38.13-15.252,17.761,0,38.03,12.242,45.556,27.494,9.834,19.968,4.315,46.158-11.941,56.292a39.084,39.084,0,0,1-30.705,4.014c-6.221-1.806-13.145-7.626-15.553-12.944-2.208-4.917-2.509-13.446-.5-16.155,1.3-1.907,1.605-1.806,5.92,2.208a51.626,51.626,0,0,0,7.827,5.92c8.228,4.315,21.273.6,25.688-7.225,4.716-8.228,1.907-21.273-6.221-28.4-15.152-13.245-38.13-9.332-50.372,8.73-16.557,24.383-7.626,55.289,20.069,68.936,35.923,17.66,76.762-2.609,90.911-45.154,7.024-21.273,6.121-43.449-2.509-58.3-5.519-9.633-17.761-17.861-32.11-21.473C139.527-217.952,104.307-219.257,77.314-217.15Z" transform="translate(-1.17 290.786)" fill="#d91b5c"/>
      <path id="Path_23" data-name="Path 23" d="M102.348,66.862s22.017-43.678-30.811-56.48c0,0-6.717,26.727,0,39.633S102.348,66.862,102.348,66.862Z" fill="#8cc63f"/>
      <path id="Path_24" data-name="Path 24" d="M109.484,65.3S140.92,77.29,146.07,36.767c.091-.163-19.389-4.859-30.935,11C107.334,58.487,109.484,65.3,109.484,65.3Z" fill="#bdd73c"/>
    </g>
  </g>
</svg>
