<svg xmlns="http://www.w3.org/2000/svg" viewBox="-28 0 161 161" stroke-width="0.5px">
  <path d="M54.91 24.09a23.71 23.71 0 01-2.38 9.76c-.24.51-.46 1-1.18.87a26.69 26.69 0 01-10.26-3c-5.34-3.03-7.72-7.82-8.09-13.8A32 32 0 0134.71 6c.14-.42.07-1 .91-.82C41.14 6.72 46.39 8.8 50.47 13a15.67 15.67 0 014.44 11.09z" stroke="#8bc53f" fill="none" stroke-miterlimit="10"/>
  <path d="M61.83 35.06a19.59 19.59 0 01-4.68-.65A1.21 1.21 0 0156 32.94a14 14 0 0111.67-13.69 24.69 24.69 0 017.72-.36c.56.06 1 .08.87.82-.91 4.92-2.46 9.52-6.53 12.82a11.67 11.67 0 01-7.9 2.53z" stroke="#bcd63c" fill="none" stroke-miterlimit="10"/>
  <path d="M52.43 39.51h20.18c21 0 34.53 23.41 24.67 42L76.77 119.2a27.47 27.47 0 01-24.27 14.59h0a27.47 27.47 0 01-24.27-14.59L7.72 81.52c-9.86-18.6 3.62-42 24.67-42z" stroke="#d81b5c" fill="none" stroke-miterlimit="10"/>
</svg>