<svg xmlns="http://www.w3.org/2000/svg" viewBox="0 0 200 140">
  <defs>
    <style>
      <!-- .cls-1{fill:#d81b5c}.cls-4{fill:#000000}.cls-2{fill:#8bc53f}.cls-3{fill:#bcd63c} -->
      .cls-1{fill:#000000}.cls-4{fill:#000000}.cls-2{fill:#000000}.cls-3{fill:#000000}
    </style>
  </defs>
  <g id="icon">
    <path class="cls-1" d="M90.38 41.82C90 39 88.18 37.47 86 37.89a3.78 3.78 0 00-3.06 4.61c.58 2.28 2.68 3.32 5.26 2.57-.32.82-.66 1.6-.92 2.41-1.82 5.63-.46 10.56 3.38 14.89a18.58 18.58 0 0010.8 5.74 17.89 17.89 0 0010-.93 3.56 3.56 0 01.39-.13 14.43 14.43 0 01-2.28 3.59 10.7 10.7 0 01-7.75 3.63 16.08 16.08 0 01-5.17-.38 10.85 10.85 0 01-6.49-5c-3.16-5.17-6.28-10.32-9.29-15.57a14.32 14.32 0 01-1.73-11.1c1.29-4.79 4.57-7.62 9.29-8.89a31.91 31.91 0 017.84-.93h9.17a26.66 26.66 0 018 1.19c5 1.67 7.58 5 7.83 10.37.31 6.89-2.23 12.59-7.93 16.6a15.05 15.05 0 01-18-.62 10.09 10.09 0 011.37-16.85 8.09 8.09 0 019.49 1.39 5.47 5.47 0 011.55 4.43 4.48 4.48 0 01-4.43 3.7 6.12 6.12 0 01-4.84-2.31c-.46-.5-.58-.49-.88.12a3.36 3.36 0 00-.21 2.14c.52 2.55 2.21 3.89 4.63 4.48a8.49 8.49 0 0010.49-6.61c1.18-5.57-1.65-10.59-7.24-12.6-5.08-1.83-9.7-.83-13.76 2.83-.39.34-.73.75-1.13 1.16z"/>
    <path class="cls-2" d="M101 26.21a10.17 10.17 0 01-1 4.23c-.11.22-.21.42-.52.38a11.49 11.49 0 01-4.44-1.29 6.82 6.82 0 01-3.49-6 14.2 14.2 0 01.72-5.17c.06-.18 0-.45.4-.35a13.58 13.58 0 016.43 3.41 6.73 6.73 0 011.9 4.79z"/>
    <path class="cls-3" d="M104 31a8.64 8.64 0 01-2-.29c-.38-.08-.51-.23-.49-.63a6 6 0 015-5.93 10.76 10.76 0 013.35-.16c.24 0 .44 0 .38.36a8.74 8.74 0 01-2.83 5.55A5 5 0 01104 31z"/>
  </g>
  <g id="main-title">
    <path class="cls-4" d="M34.81 108.24a15.12 15.12 0 01-5-.75 10 10 0 01-3.57-2.08 8.75 8.75 0 01-2.19-3.19 11.84 11.84 0 01-.82-4.07h4.83a6.38 6.38 0 00.7 2.47 5.45 5.45 0 001.45 1.73 5.77 5.77 0 002 1 8.63 8.63 0 002.42.33 8.89 8.89 0 002.21-.25 5.73 5.73 0 001.72-.69 3.4 3.4 0 001.1-1.1 2.86 2.86 0 00.38-1.46 2.56 2.56 0 00-.37-1.41 3.32 3.32 0 00-1.23-1 10.26 10.26 0 00-2.21-.84c-.92-.25-2-.51-3.38-.78a24.69 24.69 0 01-3.93-1.19 9.53 9.53 0 01-2.72-1.6 5.73 5.73 0 01-1.57-2.12 7.09 7.09 0 01-.51-2.77 6.89 6.89 0 01.7-3.11 7.18 7.18 0 012-2.44 9.89 9.89 0 013.08-1.61 14.1 14.1 0 018.17 0 9.53 9.53 0 013.26 1.79 8.22 8.22 0 012.16 2.9 9.58 9.58 0 01.83 3.84h-4.78Q39 85.28 34 85.28a7 7 0 00-3.71.82 2.54 2.54 0 00-1.28 2.24 1.76 1.76 0 00.28 1 2.63 2.63 0 00.9.79 7.52 7.52 0 001.58.66 22.19 22.19 0 002.34.58c.79.17 1.61.35 2.45.55a24.9 24.9 0 012.46.72 13.34 13.34 0 012.27 1 7.91 7.91 0 011.87 1.46 6.45 6.45 0 011.27 2 7.32 7.32 0 01.47 2.73 7.42 7.42 0 01-.76 3.37 7.74 7.74 0 01-2.1 2.63 9.9 9.9 0 01-3.2 1.72 13 13 0 01-4.03.69z"/>
    <path class="cls-4" d="M61.58 80.71a13.17 13.17 0 015.15 1 11.71 11.71 0 014.06 2.78 12.73 12.73 0 012.66 4.35 17 17 0 010 11.22 12.74 12.74 0 01-2.65 4.35 11.88 11.88 0 01-4.06 2.83 13.88 13.88 0 01-10.37 0 12.07 12.07 0 01-4.06-2.81 12.72 12.72 0 01-2.64-4.35 17.27 17.27 0 010-11.27 12.57 12.57 0 012.68-4.34 11.62 11.62 0 014.07-2.78 13.28 13.28 0 015.16-.98zm0 23.1a7.57 7.57 0 003.14-.64 7 7 0 002.46-1.85 8.52 8.52 0 001.6-2.93 12.59 12.59 0 00.57-3.93 12.34 12.34 0 00-.58-3.95 8.65 8.65 0 00-1.61-2.92 6.89 6.89 0 00-2.44-1.81 7.62 7.62 0 00-3.07-.62 7.7 7.7 0 00-3.12.63A7.18 7.18 0 0056 87.62a8.46 8.46 0 00-1.62 2.93 12.17 12.17 0 00-.58 3.91 12.3 12.3 0 00.58 3.93 8.54 8.54 0 001.62 2.93 6.88 6.88 0 002.44 1.85 7.38 7.38 0 003.12.64z"/>
    <path class="cls-4" d="M102.26 107.82H96.9l-2.55-7.26a5.29 5.29 0 00-.74-1.39 4.77 4.77 0 00-1.06-1.09 5.23 5.23 0 00-1.34-.72 4.58 4.58 0 00-1.57-.26H84.3v10.72h-5V81.13h12c.71 0 1.39 0 2 .05a11 11 0 011.85.23 8.5 8.5 0 011.71.54 6.1 6.1 0 011.55 1 6.75 6.75 0 011.14 1.25 7.87 7.87 0 01.82 1.47 8.1 8.1 0 01.49 1.61 8.58 8.58 0 01.17 1.66 7.27 7.27 0 01-1.18 4.19 7.49 7.49 0 01-3.25 2.68 9.12 9.12 0 012.78 4.12zm-18-15.31h6.63a11.67 11.67 0 002.29-.19 4 4 0 001.56-.6 2.43 2.43 0 00.89-1.11 4.35 4.35 0 00.37-1.67 3.08 3.08 0 00-1.1-2.61 5.65 5.65 0 00-3.41-.84H84.3z"/>
    <path class="cls-4" d="M127.09 99.72a7.28 7.28 0 01-2.56 6q-2.58 2.07-7.63 2.07h-10.25V81.13h9.77a13.83 13.83 0 013.89.51 9.07 9.07 0 013 1.43 6.37 6.37 0 011.9 2.27 6.55 6.55 0 01.67 3 6.72 6.72 0 01-.62 3 6.13 6.13 0 01-1.94 2.21 6.42 6.42 0 011.68 1.08 6.67 6.67 0 011.19 1.48 6.29 6.29 0 01.7 1.72 7.41 7.41 0 01.2 1.89zm-15.47-8.07h4.77a6.5 6.5 0 003.42-.7 2.53 2.53 0 001.11-2.33 3 3 0 00-.25-1.28 2.25 2.25 0 00-.83-.91 4.37 4.37 0 00-1.5-.53 12.2 12.2 0 00-2.27-.18h-4.45zm0 11.58h5.26q5.12 0 5.11-3.51a4.19 4.19 0 00-.26-1.58 2.4 2.4 0 00-.91-1.1 4.78 4.78 0 00-1.73-.65 14.15 14.15 0 00-2.67-.21h-4.8z"/>
    <path class="cls-4" d="M131.97 91.75h18.86v4.56h-13.88v6.92h15.41v4.59h-20.39V91.75z"/>
    <path class="cls-1" d="M131.97 81.13h19.81v4.59h-19.81z"/>
    <path class="cls-4" d="M176.77 85.72h-8.3v22.1h-5v-22.1h-8.26v-4.59h21.55z"/>
  </g>
  <g id="sub-title">
    <path class="cls-4" d="M57.44 121.86h-1.79l-.84-2.42a2.55 2.55 0 00-.25-.46 1.54 1.54 0 00-.36-.36 1.7 1.7 0 00-.44-.24 1.55 1.55 0 00-.53-.09h-1.78v3.57H49.8V113h4.66a4.2 4.2 0 01.62.08 3.13 3.13 0 01.57.18 2 2 0 01.51.33 2.56 2.56 0 01.39.42 3.36 3.36 0 01.27.49 3.08 3.08 0 01.18.5 2.57 2.57 0 01.06.55 2.47 2.47 0 01-.39 1.4 2.52 2.52 0 01-1.09.89 3.07 3.07 0 01.93 1.37zm-6-5.1h2.21a4.3 4.3 0 00.77-.06 1.45 1.45 0 00.52-.2.87.87 0 00.29-.37 1.34 1.34 0 00.1-.56 1 1 0 00-.37-.87 2 2 0 00-1.14-.28h-2.37z"/>
    <path class="cls-4" d="M66.66 121.86h-6.8V113h6.61v1.53h-4.95v2h4.63V118h-4.63v2.31h5.14z"/>
    <path class="cls-4" d="M75.06 116a1.82 1.82 0 00-.19-.71 1.67 1.67 0 00-.43-.55 1.82 1.82 0 00-.61-.34 2.37 2.37 0 00-.76-.12 2.4 2.4 0 00-1 .2 2 2 0 00-.79.6 2.68 2.68 0 00-.49 1 5 5 0 000 2.66 3 3 0 00.49 1 2.18 2.18 0 00.78.6 2.37 2.37 0 001 .21 2.47 2.47 0 00.79-.12 1.7 1.7 0 00.61-.36 1.79 1.79 0 00.43-.58 2.35 2.35 0 00.19-.79h1.7a4.06 4.06 0 01-.37 1.41 3.3 3.3 0 01-.79 1 3.39 3.39 0 01-1.14.65 4.24 4.24 0 01-1.4.23 4.34 4.34 0 01-1.73-.33 3.7 3.7 0 01-1.31-.92 4.22 4.22 0 01-.84-1.45 6 6 0 01-.29-1.9 5.69 5.69 0 01.3-1.9 4 4 0 01.84-1.45 3.58 3.58 0 011.31-.92 4.32 4.32 0 011.72-.33 4.09 4.09 0 011.36.23 3.73 3.73 0 011.13.66 3.5 3.5 0 01.82 1 3.62 3.62 0 01.39 1.32z"/>
    <path class="cls-4" d="M87 121.86h-1.78l-.85-2.42a2.55 2.55 0 00-.25-.46 1.71 1.71 0 00-.35-.36 2 2 0 00-.45-.24 1.54 1.54 0 00-.52-.09H81v3.57h-1.64V113H84a4.2 4.2 0 01.62.08 2.9 2.9 0 01.57.18 2.27 2.27 0 01.52.33 3 3 0 01.38.42 2.62 2.62 0 01.27.49 2.41 2.41 0 01.16.54 2.57 2.57 0 01.06.55 2.47 2.47 0 01-.39 1.4 2.52 2.52 0 01-1.09.89 3.07 3.07 0 01.93 1.37zm-6-5.1h2.21a4.3 4.3 0 00.77-.06 1.45 1.45 0 00.52-.2 1 1 0 00.3-.37 1.53 1.53 0 00.09-.56 1 1 0 00-.37-.87 2 2 0 00-1.14-.28H81z"/>
    <path class="cls-4" d="M93 122a5.39 5.39 0 01-1.43-.17 2.87 2.87 0 01-1-.46 2.11 2.11 0 01-.63-.67 3.09 3.09 0 01-.34-.82 4.44 4.44 0 01-.15-.91V113h1.66v5.08a5.15 5.15 0 00.12 1.23 1.88 1.88 0 00.37.75 1.2 1.2 0 00.6.36 2.9 2.9 0 00.81.1 3.35 3.35 0 00.82-.1 1.25 1.25 0 00.6-.37 1.71 1.71 0 00.36-.74 5.2 5.2 0 00.12-1.23V113h1.67v5.1a7.67 7.67 0 01-.16 1.66 3.08 3.08 0 01-.57 1.24 2.6 2.6 0 01-1.09.77A4.84 4.84 0 0193 122z"/>
    <path class="cls-4" d="M101.23 121.86h-1.65V113h1.65z"/>
    <path class="cls-4" d="M110.56 114.5h-2.77v7.36h-1.66v-7.36h-2.76V113h7.19z"/>
    <path class="cls-4" d="M121.22 121.86h-1.61v-5.69l-1.92 5.69h-1.39l-1.91-5.69v5.69h-1.6V113h2.15l2.06 6.34 2.07-6.34h2.15z"/>
    <path class="cls-4" d="M131 121.86h-6.8V113h6.61v1.53h-5v2h4.63V118h-4.63v2.31H131z"/>
    <path class="cls-4" d="M140.77 121.86h-1.57l-4-5.94v5.94h-1.6V113h1.57l3.95 6v-6h1.61z"/>
    <path class="cls-4" d="M150.2 114.5h-2.76v7.36h-1.67v-7.36H143V113h7.18z"/>
  </g>
</svg>